<mxfile host="app.diagrams.net" modified="2023-11-21T01:12:47.812Z" agent="Mozilla/5.0 (Windows NT 10.0; Win64; x64) AppleWebKit/537.36 (KHTML, like Gecko) Chrome/119.0.0.0 Safari/537.36 Edg/119.0.0.0" etag="3Jjv44iBQuQhdT9MgR_J" version="22.1.3" type="device">
  <diagram name="Page-1" id="XCi-1purIxV4HZ0BipPr">
    <mxGraphModel dx="1080" dy="502" grid="1" gridSize="10" guides="1" tooltips="1" connect="1" arrows="1" fold="1" page="1" pageScale="1" pageWidth="827" pageHeight="1169" math="0" shadow="0">
      <root>
        <mxCell id="0" />
        <mxCell id="1" parent="0" />
        <mxCell id="bxgqF5Lhr037vEw58-S--1" value="" style="html=1;points=[[0,0,0,0,5],[0,1,0,0,-5],[1,0,0,0,5],[1,1,0,0,-5]];perimeter=orthogonalPerimeter;outlineConnect=0;targetShapes=umlLifeline;portConstraint=eastwest;newEdgeStyle={&quot;curved&quot;:0,&quot;rounded&quot;:0};" vertex="1" parent="1">
          <mxGeometry x="290" y="180" width="20" height="140" as="geometry" />
        </mxCell>
        <mxCell id="bxgqF5Lhr037vEw58-S--2" value="getRegister()" style="html=1;verticalAlign=bottom;endArrow=block;curved=0;rounded=0;" edge="1" parent="1">
          <mxGeometry relative="1" as="geometry">
            <mxPoint x="180" y="210" as="sourcePoint" />
            <mxPoint x="290" y="210" as="targetPoint" />
          </mxGeometry>
        </mxCell>
        <mxCell id="bxgqF5Lhr037vEw58-S--3" value="return" style="html=1;verticalAlign=bottom;endArrow=open;dashed=1;endSize=8;curved=0;rounded=0;exitX=0;exitY=1;exitDx=0;exitDy=-5;entryX=1;entryY=1;entryDx=0;entryDy=-5;entryPerimeter=0;" edge="1" source="bxgqF5Lhr037vEw58-S--1" parent="1" target="z2oFX16Fkv7JpuZ6Yk5T-16">
          <mxGeometry relative="1" as="geometry">
            <mxPoint x="190" y="385" as="targetPoint" />
          </mxGeometry>
        </mxCell>
        <mxCell id="z2oFX16Fkv7JpuZ6Yk5T-11" value="User&lt;br&gt;" style="shape=umlActor;verticalLabelPosition=bottom;verticalAlign=top;html=1;outlineConnect=0;" vertex="1" parent="1">
          <mxGeometry x="70" y="20" width="30" height="60" as="geometry" />
        </mxCell>
        <mxCell id="z2oFX16Fkv7JpuZ6Yk5T-16" value="" style="html=1;points=[[0,0,0,0,5],[0,1,0,0,-5],[1,0,0,0,5],[1,1,0,0,-5]];perimeter=orthogonalPerimeter;outlineConnect=0;targetShapes=umlLifeline;portConstraint=eastwest;newEdgeStyle={&quot;curved&quot;:0,&quot;rounded&quot;:0};" vertex="1" parent="1">
          <mxGeometry x="160" y="120" width="20" height="200" as="geometry" />
        </mxCell>
        <mxCell id="z2oFX16Fkv7JpuZ6Yk5T-18" value="EiendomsRegister" style="rounded=1;whiteSpace=wrap;html=1;" vertex="1" parent="1">
          <mxGeometry x="245" y="130" width="110" height="30" as="geometry" />
        </mxCell>
        <mxCell id="z2oFX16Fkv7JpuZ6Yk5T-20" value="Main" style="rounded=1;whiteSpace=wrap;html=1;" vertex="1" parent="1">
          <mxGeometry x="138.75" y="55" width="62.5" height="35" as="geometry" />
        </mxCell>
        <mxCell id="z2oFX16Fkv7JpuZ6Yk5T-21" value="" style="endArrow=none;dashed=1;html=1;dashPattern=1 3;strokeWidth=2;rounded=0;exitX=0.496;exitY=-0.014;exitDx=0;exitDy=0;exitPerimeter=0;entryX=0.5;entryY=1;entryDx=0;entryDy=0;" edge="1" parent="1" source="z2oFX16Fkv7JpuZ6Yk5T-16" target="z2oFX16Fkv7JpuZ6Yk5T-20">
          <mxGeometry width="50" height="50" relative="1" as="geometry">
            <mxPoint x="100" y="180" as="sourcePoint" />
            <mxPoint x="150" y="130" as="targetPoint" />
          </mxGeometry>
        </mxCell>
        <mxCell id="z2oFX16Fkv7JpuZ6Yk5T-23" value="" style="endArrow=none;dashed=1;html=1;dashPattern=1 3;strokeWidth=2;rounded=0;entryX=0.5;entryY=1;entryDx=0;entryDy=0;" edge="1" parent="1" source="bxgqF5Lhr037vEw58-S--1" target="z2oFX16Fkv7JpuZ6Yk5T-18">
          <mxGeometry width="50" height="50" relative="1" as="geometry">
            <mxPoint x="340" y="190" as="sourcePoint" />
            <mxPoint x="340" y="210" as="targetPoint" />
          </mxGeometry>
        </mxCell>
        <mxCell id="z2oFX16Fkv7JpuZ6Yk5T-24" value="" style="endArrow=classic;html=1;rounded=0;entryX=0;entryY=0.5;entryDx=0;entryDy=0;" edge="1" parent="1" source="z2oFX16Fkv7JpuZ6Yk5T-16" target="z2oFX16Fkv7JpuZ6Yk5T-18">
          <mxGeometry width="50" height="50" relative="1" as="geometry">
            <mxPoint x="290" y="260" as="sourcePoint" />
            <mxPoint x="340" y="210" as="targetPoint" />
          </mxGeometry>
        </mxCell>
        <mxCell id="z2oFX16Fkv7JpuZ6Yk5T-25" value="New" style="text;html=1;strokeColor=none;fillColor=none;align=center;verticalAlign=middle;whiteSpace=wrap;rounded=0;" vertex="1" parent="1">
          <mxGeometry x="180" y="120" width="60" height="30" as="geometry" />
        </mxCell>
      </root>
    </mxGraphModel>
  </diagram>
</mxfile>
